<svg width="2083" height="286" viewBox="0 0 2083 286" fill="none" xmlns="http://www.w3.org/2000/svg">
<path d="M138.656 2.92188V233.391C138.656 268.156 121.273 285.344 86.5078 285.344H52.5234C17.7578 285.344 0.570312 268.156 0.570312 233.391V2.92188H56.625V227.336C56.625 234.172 59.9453 237.492 66.5859 237.492H72.6406C79.2812 237.492 82.6016 234.172 82.6016 227.336V2.92188H138.656Z" fill="black"/>
<path d="M294.906 283H240.414L204.867 130.656L205.648 201.75L206.43 283H157.992V2.92188H215.219L247.641 141.789L246.859 60.9297L246.469 2.92188H294.906V283Z" fill="black"/>
<path d="M371.078 2.92188V283H315.023V2.92188H371.078Z" fill="black"/>
<path d="M475.57 283H419.711V52.9219H385.531V2.92188H509.555V52.9219H475.57V283Z" fill="black"/>
<path d="M523.617 2.92188H627.719V52.9219H579.672V115.812H625.57V165.812H579.672V233H628.5V283H523.617V2.92188Z" fill="black"/>
<path d="M784.555 283H728.695V52.9219H694.516V2.92188H818.539V52.9219H784.555V283Z" fill="black"/>
<path d="M969.906 233.391C969.906 268.156 952.523 285.344 917.953 285.344H881.82C847.055 285.344 829.867 268.156 829.867 233.391V52.5312C829.867 17.9609 847.055 0.578125 881.82 0.578125H917.953C952.523 0.578125 969.906 17.9609 969.906 52.5312V233.391ZM913.852 58.5859C913.852 51.9453 910.531 48.625 903.891 48.625H895.883C889.242 48.625 885.922 51.9453 885.922 58.5859V227.336C885.922 234.172 889.242 237.492 895.883 237.492H903.891C910.531 237.492 913.852 234.172 913.852 227.336V58.5859Z" fill="black"/>
<path d="M1125.96 159.367H1181.23V233.391C1181.23 268.156 1163.85 285.344 1129.09 285.344H1094.71C1059.95 285.344 1042.76 268.156 1042.76 233.391V52.5312C1042.76 17.9609 1059.95 0.578125 1094.71 0.578125H1128.3C1163.07 0.578125 1180.45 17.9609 1180.45 52.5312V118.156H1125.18V58.5859C1125.18 51.9453 1121.86 48.625 1115.22 48.625H1108.77C1102.13 48.625 1098.81 51.9453 1098.81 58.5859V227.336C1098.81 234.172 1102.13 237.492 1108.77 237.492H1116C1122.64 237.492 1125.96 234.172 1125.96 227.336V159.367Z" fill="black"/>
<path d="M1339.05 233.391C1339.05 268.156 1321.66 285.344 1287.09 285.344H1250.96C1216.2 285.344 1199.01 268.156 1199.01 233.391V52.5312C1199.01 17.9609 1216.2 0.578125 1250.96 0.578125H1287.09C1321.66 0.578125 1339.05 17.9609 1339.05 52.5312V233.391ZM1282.99 58.5859C1282.99 51.9453 1279.67 48.625 1273.03 48.625H1265.02C1258.38 48.625 1255.06 51.9453 1255.06 58.5859V227.336C1255.06 234.172 1258.38 237.492 1265.02 237.492H1273.03C1279.67 237.492 1282.99 234.172 1282.99 227.336V58.5859Z" fill="black"/>
<path d="M1424.4 283L1403.3 97.8438V283H1358.38V2.92188H1439.24L1455.26 172.648L1472.45 2.92188H1553.7V283H1498.42V99.7969L1477.13 283H1424.4Z" fill="black"/>
<path d="M1629.67 185.734V283H1573.62V2.92188H1655.65C1690.22 2.92188 1707.6 20.3047 1707.6 55.0703V133.781C1707.6 168.547 1690.22 185.734 1655.65 185.734H1629.67ZM1651.74 60.9297C1651.74 54.2891 1648.23 50.9688 1641.59 50.9688H1629.67V137.883H1641.59C1648.23 137.883 1651.74 134.562 1651.74 127.727V60.9297Z" fill="black"/>
<path d="M1723.23 2.92188H1827.33V52.9219H1779.28V115.812H1825.18V165.812H1779.28V233H1828.11V283H1723.23V2.92188Z" fill="black"/>
<path d="M1929.87 283H1874.01V52.9219H1839.83V2.92188H1963.85V52.9219H1929.87V283Z" fill="black"/>
<path d="M1977.91 2.92188H2082.02V52.9219H2033.97V115.812H2079.87V165.812H2033.97V233H2082.8V283H1977.91V2.92188Z" fill="black"/>
</svg>
